<svg xmlns="http://www.w3.org/2000/svg" width="100%" height="100%" viewBox="0 0 512 512">
  <defs>
    <linearGradient id="bg" x1="0" y1="0" x2="1" y2="1">
      <stop offset="0%" stop-color="#18181B"/>
      <stop offset="100%" stop-color="#27272A"/>
    </linearGradient>
    <linearGradient id="pin" x1="0.5" y1="0" x2="0.5" y2="1">
      <stop offset="0%" stop-color="#FAFAFA"/>
      <stop offset="100%" stop-color="#E4E4E7"/>
    </linearGradient>
  </defs>
  <!-- Background -->
  <rect width="512" height="512" rx="77" fill="url(#bg)"/>
  <!-- Bubble body -->
  <path d="M256,56.31999999999999
           C108.80000000000001,56.31999999999999 102.4,152.32 102.4,184.32
           C102.4,241.92 134.4,280.32 209.92000000000002,299.52
           L256,337.92
           L302.08,299.52
           C377.6,280.32 409.6,241.92 409.6,184.32
           C409.6,152.32 403.2,56.31999999999999 256,56.31999999999999 Z"
        fill="url(#pin)"/>
  <!-- Text lines inside bubble -->
  <rect x="168.95999999999998" y="148.48" width="174.08" height="23" rx="12" fill="#71717A" opacity="0.35"/><rect x="184.32" y="220.16" width="143.36" height="23" rx="12" fill="#71717A" opacity="0.35"/>
  <!-- Highlight bar on first line -->
  <rect x="199.68" y="141.98" width="112.64" height="36" rx="13" fill="#10B981"/>
  <!-- Caret BELOW the bubble tail, with gap -->
  <path d="M209.92000000000002,404.48 L256,363.52000000000004 L302.08,404.48"
        stroke="#10B981" stroke-width="15" fill="none" stroke-linecap="round" stroke-linejoin="round"/>
</svg>